<svg xmlns="http://www.w3.org/2000/svg" width="65" height="65" viewBox="4 -0.5 65 65"><defs><linearGradient id="a" x1="-.102" x2="65" y1="32" y2="32" gradientUnits="userSpaceOnUse" gradientTransform="translate(5)"><stop stop-color="#FB43FF"/><stop offset="1" stop-color="#FB406D"/></linearGradient></defs><path fill="url(#a)" d="M5.991 51.244a.25.25 0 0 1-.08-.31l7.64-15.726-8.81-10.518a.254.254 0 0 1 .03-.352l25.69-21.407a12.675 12.675 0 0 1 15.89-.26 12.604 12.604 0 0 1 3.6 15.436l-2.81 5.767c1.1-.367 2.18-.7 3.25-1l12.67-3.64c.14-.04.28.045.31.186l5.31 23.585a.257.257 0 0 1-.22.307c-1.68.212-10.85 1.53-22.28 6.33-12.94 5.435-21.48 13.162-22.69 14.292a.25.25 0 0 1-.32.014z"/><path d="M56.681 11.999h-40v40h40Z"/><path d="M28 19.9h-5.1v23.8H28m17-23.8h5.1v23.8H45m-15.3-17h13.6m-13.6 5.1h10.2m-10.2 5.1h13.6" stroke-width="2.89" fill="none" stroke="#fff" stroke-linecap="none" stroke-linejoin="round"/></svg>