<?xml version="1.0" encoding="utf-8"?>
<svg xmlns="http://www.w3.org/2000/svg" viewBox="4.111 -0.411 65 65" preserveAspectRatio="none" width="0px" style="" xmlns:bx="https://boxy-svg.com">
  <defs>
    <linearGradient id="youtrack_svg__a" x1="-.102" x2="64.053" y1="32" y2="32" gradientUnits="userSpaceOnUse" gradientTransform="matrix(1, 0, 0, 1, 4.687238, 0.000525)">
      <stop stop-color="#FB43FF"/>
      <stop offset="0.97" stop-color="#FB406D"/>
    </linearGradient>
    <bx:grid x="0" y="0" width="2.342" height="2.342"/>
  </defs>
  <path fill="url(#youtrack_svg__a)" d="M 5.991 51.244 C 5.891 51.172 5.861 51.042 5.911 50.934 L 13.551 35.208 L 4.741 24.69 C 4.651 24.584 4.671 24.426 4.771 24.338 L 30.461 2.931 C 35.041 -0.878 41.651 -0.986 46.351 2.671 C 51.041 6.322 52.541 12.758 49.951 18.107 L 47.141 23.874 C 48.241 23.507 49.321 23.174 50.391 22.874 L 63.061 19.234 C 63.201 19.194 63.341 19.279 63.371 19.42 L 68.681 43.005 C 68.711 43.151 68.611 43.293 68.461 43.312 C 66.781 43.524 57.611 44.842 46.181 49.642 C 33.241 55.077 24.701 62.804 23.491 63.934 C 23.401 64.016 23.261 64.022 23.171 63.948 L 5.991 51.244 Z" style="stroke-width: 1;"/>
  <path fill="#000" d="M 56.681 11.999 L 16.681 11.999 L 16.681 51.999 L 56.681 51.999 L 56.681 11.999 Z" style="stroke-width: 1;"/>
  <text style="fill: rgb(255, 255, 255); font-family: Arial, sans-serif; font-size: 32px; white-space: pre;" x="242.641" y="212.749" transform="matrix(1, 0, 0, 1.051337, -223.957245, -182.90332)">[  ]</text>
  <text style="fill: rgb(255, 255, 255); font-family: Arial, sans-serif; font-size: 29px; white-space: pre;" x="250.18" y="211.393" transform="matrix(2.430883, 0, 0, 1, -583.32666, -165.19046)">-</text>
  <text style="fill: rgb(255, 255, 255); font-family: Arial, sans-serif; font-size: 29px; white-space: pre;" x="250.18" y="211.393" transform="matrix(2.430883, 0, 0, 1, -583.353516, -179.131912)">-</text>
  <text style="fill: rgb(255, 255, 255); font-family: Arial, sans-serif; font-size: 29px; white-space: pre;" x="250.18" y="211.393" transform="matrix(1.970648, 0, 0, 1, -467.748535, -172.487244)">-</text>
</svg>